<?xml version="1.0" encoding="UTF-8" standalone="no"?>
<!DOCTYPE svg PUBLIC "-//W3C//DTD SVG 1.1//EN" "http://www.w3.org/Graphics/SVG/1.1/DTD/svg11.dtd">
<svg width="100%" height="100%" viewBox="0 0 1199 336" version="1.1" xmlns="http://www.w3.org/2000/svg" xmlns:xlink="http://www.w3.org/1999/xlink" xml:space="preserve" xmlns:serif="http://www.serif.com/" style="fill-rule:evenodd;clip-rule:evenodd;stroke-linejoin:round;stroke-miterlimit:2;">
    <g transform="matrix(1,0,0,1,-681.835417,-2617.673136)">
        <g transform="matrix(4.166667,0,0,4.166667,0,0)">
            <g transform="matrix(1,0,0,1,238.932,638.9626)">
                <path d="M0,25.68C-0.366,24.229 0.828,20.863 -0.615,20.043C-0.245,21.489 -1.448,24.807 0,25.68M27.895,17.554C27.981,15.894 26.616,14.857 25.155,13.945C24.554,13.57 23.768,13.953 23.698,14.658L23.54,16.246C23.499,16.653 23.724,17.041 24.097,17.209L26.557,18.316C27.146,18.581 27.862,18.198 27.895,17.554M4.47,17.925L5.521,32.552C5.548,32.929 5.346,33.291 5.014,33.47C3.225,34.436 2.19,33.104 0.945,32.886C0.121,32.741 -1.22,33.686 -2.068,32.816C-2.185,32.697 -2.25,32.539 -2.276,32.374C-2.775,29.233 -1.826,17.341 -3.261,16.399C-3.884,15.991 -5.69,16.572 -6.262,15.332C-7.043,13.634 -5.078,13.667 -4.372,12.864C-2.659,10.916 -4.12,3.337 -3.607,-0.191C-3.411,-1.539 -2.361,-4.555 -1.659,-5.767C-0.425,-7.895 2.817,-9.75 5.327,-10.465C5.842,-10.612 7.036,-10.968 7.166,-10.448L7.159,-10.434L7.198,-10.416C7.954,-9.486 8.034,-8.805 8.678,-8.174C9.207,-7.655 8.643,-7.366 8.766,-8.097L8.692,-8.17L10.664,-6.271C11.219,-4.953 9.884,-7.012 10.674,-6.306C11.959,-5.159 14.526,-4.706 14.486,-1.954C14.479,-1.525 14.195,-1.118 13.775,-1.03C10.52,-0.35 6.069,-7.275 3.716,-4.156C2.322,-2.308 3.229,6.175 3.693,9.795C3.753,10.261 4.145,10.609 4.615,10.62L16.947,10.916C17.314,10.925 17.649,10.725 17.813,10.396C19,8.023 23.28,4.684 25.353,4.984C25.753,5.042 28.058,6.21 28.148,6.364C28.692,7.296 30.991,9.893 30.359,11.636C30.221,12.014 29.874,11.32 33.238,11.272C34.299,12.795 36.615,14.502 36.904,15.425C37.223,16.445 36.924,17.782 37.146,18.963C37.407,20.357 38.77,20.572 37.692,22.245C35.165,26.165 28.402,23.308 24.097,23.16C23.546,23.141 23.104,23.585 23.105,24.136C23.109,25.724 23.717,28.191 24.782,28.191L37.392,28.191C38.078,28.191 38.529,28.893 38.264,29.526C37.722,30.818 38.219,30.683 39.263,32.482C39.373,32.671 39.429,32.904 39.381,33.117C38.591,36.648 30.041,36.563 27.301,36.333C13.162,35.148 15.594,27.147 17.348,16.387C17.451,15.756 16.909,15.214 16.274,15.292C15.079,15.439 14.434,15.366 14.681,17.025C13.501,17.261 14.621,16.904 14.433,16.904L5.42,16.904C4.867,16.904 4.431,17.373 4.47,17.925" style="fill:rgb(35,25,22);fill-rule:nonzero;"/>
            </g>
        </g>
        <g transform="matrix(4.166667,0,0,4.166667,0,0)">
            <g transform="matrix(1,0,0,1,441.5169,675.9068)">
                <path d="M0,-25.953C-7.679,-30.411 -14.801,-20.346 -6.61,-15.593C-6.196,-15.352 -5.678,-15.348 -5.25,-15.562C-1.373,-17.501 1.442,-20.315 0.689,-24.95C0.621,-25.365 0.364,-25.742 0,-25.953M7.733,-30.536C8.373,-30.57 8.969,-30.184 9.194,-29.584C10.519,-26.063 8.924,-22.697 8.777,-19.128C8.504,-12.482 10.88,-8.564 7.885,-1.829C4.907,4.866 0.296,7.898 -7.222,6.95C-12.516,6.282 -18.566,-2.496 -10.826,-4.235C-9.468,-4.54 -2.521,-4.764 -2.503,-3.423L-3.755,-2.947C-4.464,-2.678 -4.86,-1.92 -4.675,-1.185C-4.482,-0.42 -3.721,0.104 -2.954,-0.078C-0.031,-0.773 1.168,-4.479 1.333,-7.702C1.388,-8.792 0.318,-9.564 -0.706,-9.185C-6.928,-6.883 -11.652,-7.956 -15.562,-14.183C-18.086,-18.202 -18.297,-22.665 -15.791,-26.753C-11.441,-33.851 0.486,-30.158 7.733,-30.536" style="fill:rgb(35,25,22);fill-rule:nonzero;"/>
            </g>
        </g>
        <g transform="matrix(4.166667,0,0,4.166667,0,0)">
            <g transform="matrix(1,0,0,1,333.7487,641.0356)">
                <path d="M0,30.415C-0.67,30.001 -1.659,21.007 -1.502,19.538C-4.507,17.116 -2.644,12.825 -4.498,9.815C-6.55,10.66 -4.454,13.736 -5.122,15.455L-5.746,13.573C-6.76,12.448 -8.808,17.37 -9.06,18.099C-9.976,20.744 -10.219,27.223 -12.659,28.35C-13.06,28.535 -20.331,27.275 -21.393,27.028L-25.179,21.734L-27.033,29.602L-32.126,29.606C-34.058,28.258 -30.472,13.16 -29.191,10.492L-24.898,6.697C-21.165,9.079 -20.312,12.031 -17.974,15.446C-17.016,14.994 -17.312,13.462 -16.873,13.071C-16.102,12.383 -16.964,13.877 -15.703,11.142C-12.903,10.403 -13.034,7.267 -11.828,5.296C-11.19,4.255 -10.332,3.97 -9.61,3.152C-8.304,1.67 -7.917,-1.352 -4.475,0.714C-4.223,0.865 -1.531,5.021 -1.227,5.613C0.506,8.979 5.381,26.073 5.513,29.66C5.552,30.699 5.477,31.134 4.59,31.767C3.465,30.517 0.56,30.761 0,30.415" style="fill:rgb(35,25,22);fill-rule:nonzero;"/>
            </g>
        </g>
        <g transform="matrix(4.166667,0,0,4.166667,0,0)">
            <g transform="matrix(1,0,0,1,223.8783,648.6304)">
                <path d="M0,14.131L-1.242,9.121C-1.19,10.515 -1.634,13.492 0,14.131M-10.064,-2.15L-11.909,-2.175L-13.158,7.235C-11.511,6.318 -8.664,-1.234 -10.064,-2.15M1.267,25.422L-0.001,16.019C-1.183,15.893 -0.506,17.334 -0.442,18.027C-0.138,21.318 1.2,24.93 -1.559,27.301C-5.762,23.566 -5.021,18.213 -5.616,13.171C-5.728,12.221 -5.638,11.617 -6.58,11.011C-8.339,12.219 -8.58,15.194 -9.587,16.466C-10.819,18.022 -15.008,19.48 -16.62,21.018C-17.161,19.554 -19.14,17.599 -19.593,16.484C-21.339,12.18 -19.164,0.319 -17.185,-3.991C-12.969,-13.17 -6.937,-5.409 -0.29,-4.069L2.985,23.378L1.267,25.422Z" style="fill:rgb(35,25,22);fill-rule:nonzero;"/>
            </g>
        </g>
        <g transform="matrix(4.166667,0,0,4.166667,0,0)">
            <g transform="matrix(1,0,0,1,196.9105,655.5132)">
                <path d="M0,0.35C-6.515,1.381 -8.826,-6.471 -13.483,-9.068C-14.45,-6.583 -17.866,-7.892 -19.73,-5.893C-20.394,-5.181 -24.21,1.894 -24.601,3.033C-25.136,4.589 -25.259,6.297 -25.452,7.913C-24.298,9.321 -14.548,10.22 -12.216,10.356C-9.147,10.535 -5.189,8.426 -3.391,12.293L-1.255,11.639C-1.078,12.612 -0.535,13.787 -1.403,14.617C-1.814,15.01 -8.676,18.862 -9.257,18.998C-10.544,19.299 -14.945,19.226 -16.501,19.101C-18.598,18.932 -30.055,17.014 -30.726,15.707L-30.641,15.738L-33.27,13.547L-33.239,13.517C-33.016,9.055 -33.736,5.713 -31.917,1.363C-26.843,-10.768 -16.299,-18.949 -5.003,-7.497L0,0.35Z" style="fill:rgb(35,25,22);fill-rule:nonzero;"/>
            </g>
        </g>
        <g transform="matrix(4.166667,0,0,4.166667,0,0)">
            <g transform="matrix(1,0,0,1,380.3412,651.7769)">
                <path d="M0,0.211C-0.121,1.758 -0.121,0.939 -0.058,1.518C0.07,2.701 -1.5,13.306 -1.847,13.848C-2.154,14.327 -2.072,14.571 -2.083,15.024L-1.009,20.654C-4.444,24.042 -10.008,23.592 -10.907,18.166C-12.164,10.578 -8.818,1.911 -8.918,-5.483L-4.028,-20.364L-2.164,-18.49C-2.045,-21.36 1.513,-23.831 2.223,-20.029L0,0.211Z" style="fill:rgb(35,25,22);fill-rule:nonzero;"/>
            </g>
        </g>
        <g transform="matrix(4.166667,0,0,4.166667,0,0)">
            <g transform="matrix(1,0,0,1,420.2043,648.783)">
                <path d="M0,20.254C-1.662,19.051 -3.884,21.004 -5.251,20.738C-10.141,19.785 -7.501,7.636 -11.051,5.263C-15.071,6.2 -16.392,7.041 -18.26,10.09C-18.667,10.754 -18.792,10.949 -18.71,12.847C-18.688,13.356 -18.133,18.56 -19.115,20.259C-19.911,21.637 -23.241,21.634 -24.3,20.723C-25.268,19.891 -26.653,4.448 -26.369,2.35C-26.187,1.008 -25.788,-0.261 -24.23,-0.391L-21.954,1.439C-20.746,2.764 -19.905,2.692 -19.125,2.683C-16.699,0.285 -14.739,-1.383 -11.155,-0.93C-0.972,0.355 0.326,11.848 0,20.254" style="fill:rgb(35,25,22);fill-rule:nonzero;"/>
            </g>
        </g>
        <g transform="matrix(4.166667,0,0,4.166667,0,0)">
            <g transform="matrix(1,0,0,1,366.2646,628.5507)">
                <path d="M0,41.115C-1.91,39.935 -3.469,40.872 -5.343,41.545L-7.236,39.253C-10.083,25.796 -6.179,12.296 -1.569,-0.261C0.585,1.629 3.35,-0.43 3.806,3.145C4.32,7.165 1.104,17.509 0.641,22.623C0.189,27.605 0.016,34.619 0.466,39.002C0.543,39.749 -0.029,40.377 0,41.115" style="fill:rgb(35,25,22);fill-rule:nonzero;"/>
            </g>
        </g>
        <g transform="matrix(4.166667,0,0,4.166667,0,0)">
            <g transform="matrix(1,0,0,1,390.4191,669.12)">
                <path d="M0,-20.955C-0.199,-21.706 -0.835,-22.166 -1.59,-22.347C-1.622,-22.354 -1.572,-22.352 -1.604,-22.36C-1.569,-22.327 -1.616,-22.378 -1.582,-22.346C-7.595,-18.982 -5.357,-16.501 -6.012,-11.11C-6.315,-8.613 -8.067,-3.713 -7.019,-0.982C-6.949,-0.799 -6.839,-0.628 -6.702,-0.487C-5.398,0.848 -4.091,-0.096 -2.955,0.782C-2.126,1.423 -0.921,1.166 -0.498,0.209C1.112,-3.433 0.237,-7.802 0.296,-11.726C0.342,-14.838 0.765,-18.068 0,-20.955" style="fill:rgb(35,25,22);fill-rule:nonzero;"/>
            </g>
        </g>
        <g transform="matrix(4.166667,0,0,4.166667,0,0)">
            <g transform="matrix(1,0,0,1,395.0393,642.7591)">
                <path d="M0,-3.402C-0.198,-3.979 -3.364,-6.311 -4.03,-6.37C-5.003,-6.456 -6.035,-5.538 -7.168,-5.151C-7.844,-4.921 -7.86,-4.161 -8.198,-3.533C-8.951,-2.137 -9.288,-1.829 -9.353,-1.542C-9.626,-0.329 -9.07,0.828 -8.275,1.85C-8.148,2.014 -7.987,2.155 -7.806,2.257C-7.178,2.609 -6.5,2.866 -5.797,3.011C-5.591,3.053 -5.379,3.054 -5.174,3.013C-2.302,2.433 1.067,-0.295 0,-3.402" style="fill:rgb(35,25,22);fill-rule:nonzero;"/>
            </g>
        </g>
        <g transform="matrix(4.166667,0,0,4.166667,0,0)">
            <g transform="matrix(1,0,0,1,339.8844,695.3128)">
                <path d="M0,0.359L2.543,0.058C2.868,3.03 1.979,5.191 -1.219,3.818L0,0.359ZM-1.658,7.184C-0.566,7.163 0.55,7.031 1.585,6.668C2.553,6.329 3.123,5.652 3.596,4.763C4.054,3.905 4.419,2.914 4.48,1.933C4.463,1.933 4.448,1.936 4.43,1.936C5.892,-1.551 1.575,-2.243 -1.219,-1.818L-1.218,-6.841L-3.152,-6.469L-4.723,6.303L-4.456,6.773C-3.63,7.196 -2.54,7.2 -1.658,7.184" style="fill:rgb(35,25,22);fill-rule:nonzero;"/>
            </g>
        </g>
        <g transform="matrix(4.166667,0,0,4.166667,0,0)">
            <g transform="matrix(1,0,0,1,362.5191,702.8963)">
                <path d="M0,-9.759C-4.004,-10.239 -2.014,-4.628 -5.654,-3.134L-6.291,-10.029L-8.486,-8.779C-9.281,-12.062 -13.734,-8.753 -14.134,-8.789C-14.884,-8.856 -14.685,-10.867 -15.688,-10.654C-16.2,-9.515 -16.024,-7.597 -16.632,-6.496C-16.638,-5.653 -16.774,-4.823 -16.992,-4.013C-17.239,-1.369 -16.972,-0.335 -14.697,0.386C-14.68,0.372 -14.667,0.354 -14.649,0.343C-14.587,0.305 -14.528,0.262 -14.47,0.219C-14.277,0.064 -14.112,-0.123 -13.95,-0.309C-13.989,-2.659 -15.168,-5.334 -13.326,-7.311C-13.26,-7.381 -13.189,-7.418 -13.116,-7.441L-13.115,-7.452C-6.96,-8.695 -9.275,-6.511 -8.547,-3.127C-7.581,1.367 -4.537,2.303 -2.208,-1.877L-1.519,0.049L0.948,0.026C1.687,-1.156 0.891,-9.104 0,-9.759" style="fill:rgb(35,25,22);fill-rule:nonzero;"/>
            </g>
        </g>
        <g transform="matrix(4.166667,0,0,4.166667,0,0)">
            <g transform="matrix(1,0,0,1,349.9228,672.6148)">
                <path d="M0,-26.774C1.724,-22.545 0.056,-17.41 0.164,-13.3C0.23,-10.805 2.97,-1.871 1.332,-0.718C0.312,0 -2.266,-0.439 -3.351,-1.135C-6.691,-3.277 -6.001,-17.984 -7.547,-22.086C-7.356,-25.558 -2.883,-26.612 0,-26.774" style="fill:rgb(35,25,22);fill-rule:nonzero;"/>
            </g>
        </g>
        <g transform="matrix(4.166667,0,0,4.166667,0,0)">
            <g transform="matrix(1,0,0,1,374.7617,695.9232)">
                <path d="M0,3.935C-0.084,3.533 -0.095,3.132 -0.132,2.725C-0.136,2.691 -0.144,2.658 -0.148,2.624C-0.193,2.554 -0.227,2.476 -0.227,2.38L-0.227,2.125C-0.241,2.057 -0.261,1.991 -0.277,1.923C-0.294,1.935 -0.311,1.948 -0.333,1.954C-0.323,1.881 -0.327,1.805 -0.325,1.729C-0.336,1.688 -0.345,1.646 -0.356,1.604C-0.383,1.506 -0.375,1.422 -0.353,1.344C-0.661,-0.597 -3.356,-3.043 -4.954,-2.914C-5.994,-2.83 -7.334,-1.467 -9.118,-2.429L-9.106,6.977L-6.105,6.225L-4.723,0.078C-2.203,1.438 -2.905,4.635 -2.847,6.973L0.281,6.978L0.286,5.703C0.273,5.478 0.258,5.254 0.242,5.029C0.193,4.656 0.077,4.302 0,3.935" style="fill:rgb(35,25,22);fill-rule:nonzero;"/>
            </g>
        </g>
        <g transform="matrix(4.166667,0,0,4.166667,0,0)">
            <g transform="matrix(1,0,0,1,382.4058,697.4929)">
                <path d="M0,1.145C-1.167,1.471 -3.021,3.845 -3.604,0.689C-4.612,-4.777 0.738,-1.665 1.422,-2.753L1.146,-4.664C-1.415,-5.89 -5.173,-5.832 -6.65,-2.981C-6.877,-2.543 -6.978,-2.035 -7.062,-1.546C-7.033,-1.483 -7.016,-1.411 -7.018,-1.327C-7.029,-0.885 -6.982,-0.449 -6.92,-0.015C-6.89,0.045 -6.871,0.114 -6.871,0.196L-6.871,0.314C-6.756,0.997 -6.605,1.676 -6.512,2.363C-6.496,2.478 -6.489,2.593 -6.478,2.708C-6.457,2.729 -6.43,2.743 -6.413,2.768C-6.369,2.816 -6.339,2.873 -6.324,2.938C-6.298,3.003 -6.28,3.072 -6.268,3.141C-6.259,3.192 -6.258,3.244 -6.252,3.296C-5.524,4.245 -4.984,5.396 -3.606,5.781C0.889,7.035 3.99,0.031 0,1.145" style="fill:rgb(35,25,22);fill-rule:nonzero;"/>
            </g>
        </g>
        <g transform="matrix(4.166667,0,0,4.166667,0,0)">
            <g transform="matrix(1,0,0,1,235.0568,703.2384)">
                <path d="M0,-11.431C0.126,-11.372 0.109,-10.723 0.274,-10.643C1.035,-10.277 1.675,-11.212 2.339,-9.146L3.257,-0.338L-0.509,-0.346L-0.515,-7.866C-3.48,-6.143 0.517,0.455 -4.946,-1.237L-6.465,-7.863C-8.76,-5.281 -7.895,-1.6 -8.038,1.54L-11.498,0.97C-11.563,-0.844 -12.515,-7.93 -11.854,-8.818C-10.022,-11.28 -9.776,-8.415 -9.607,-8.494C-7.744,-12.971 -4.703,-9.81 -3.322,-9.904C-2.365,-9.969 -1.937,-12.338 0,-11.431" style="fill:rgb(35,25,22);fill-rule:nonzero;"/>
            </g>
        </g>
        <g transform="matrix(4.166667,0,0,4.166667,0,0)">
            <g transform="matrix(1,0,0,1,206.3221,694.1091)">
                <path d="M0,-0.304C0.604,-4.79 5.367,-1.815 7.214,0.625C13.441,-9.093 16.632,2.32 14.461,8.51L12.554,8.786C11.49,6.413 12.205,3.891 11.921,1.564C11.814,0.689 11.531,-0.285 10.669,0.636L9.111,7.55L5.67,8.135C5.231,5.822 5.629,2.363 3.144,1.265L2.171,8.17L0,8.789C0.272,5.915 -0.375,2.483 0,-0.304" style="fill:rgb(35,25,22);fill-rule:nonzero;"/>
            </g>
        </g>
        <g transform="matrix(4.166667,0,0,4.166667,0,0)">
            <g transform="matrix(1,0,0,1,186.2584,696.7642)">
                <path d="M0,-1.396C1.241,-2.171 1.082,-4.367 2.503,-5.419C5.827,-7.879 7.675,2.727 6.787,4.812L3.759,6.13L2.815,-0.771C1.741,2.371 2.286,4.67 -1.883,4.882L-3.764,-1.388C-5.308,1.02 -3.507,6.483 -7.531,6.13C-8.078,5.574 -5.028,-5.314 -3.791,-6.121C-2.01,-7.281 0.071,-2.767 0,-1.396" style="fill:rgb(35,25,22);fill-rule:nonzero;"/>
            </g>
        </g>
        <g transform="matrix(4.166667,0,0,4.166667,0,0)">
            <g transform="matrix(1,0,0,1,277.8264,700.7243)">
                <path d="M0,-7.226C-2.282,-7.731 -3.643,-8.132 -5.638,-6.606L-5.944,-10.382L-8.151,-10.998L-8.237,-6.243C-8.23,-6.209 -8.216,-6.18 -8.216,-6.142L-8.216,-0.512C-8.216,-0.408 -8.248,-0.327 -8.293,-0.256C-8.254,0.973 -8.214,2.201 -8.186,3.43L-5.642,3.427L-5.337,-0.339C-5.236,0.516 -3.066,3.772 -2.213,3.416L-0.671,1.315C-1.686,-0.429 -4.991,-2.265 -4.423,-4.341C-4.21,-5.119 -0.187,-5.349 0,-7.226" style="fill:rgb(35,25,22);fill-rule:nonzero;"/>
            </g>
        </g>
        <g transform="matrix(4.166667,0,0,4.166667,0,0)">
            <g transform="matrix(1,0,0,1,259.6172,701.8759)">
                <path d="M0,-8.696C0.461,-8.214 -0.033,-7.427 -0.669,-7.624C-2.216,-8.105 -4.078,-8.609 -4.365,-7.437C-5.207,-3.99 3.165,-5.74 0.8,-0.394C-0.737,3.079 -3.954,3.963 -6.906,1.366C-10.943,-2.187 -6.116,-4.518 -3.346,-0.276L-1.238,-1.803L-7.509,-3.998C-6.89,-9.93 -3.785,-12.659 0,-8.696" style="fill:rgb(35,25,22);fill-rule:nonzero;"/>
            </g>
        </g>
        <g transform="matrix(4.166667,0,0,4.166667,0,0)">
            <g transform="matrix(1,0,0,1,246.4621,709.2687)">
                <path d="M0,-17.029C-0.159,-11.539 -0.574,-5.722 -3.291,-0.888C-5.549,0.546 -7.333,-1.872 -7.497,-4.143L-6.011,-5.078L-4.394,-3.863L-3.139,-9.506L-5.657,-9.141L-8.153,-14.823L-5.665,-15.761L-3.768,-12.643C-2.96,-14.428 -2.546,-17.575 0,-17.029" style="fill:rgb(35,25,22);fill-rule:nonzero;"/>
            </g>
        </g>
        <g transform="matrix(4.166667,0,0,4.166667,0,0)">
            <g transform="matrix(1,0,0,1,284.5652,697.362)">
                <path d="M0,2.235C2.476,-0.334 -0.191,-3.458 -3.577,-1.322L-2.37,2.769C-1.735,3.207 -0.457,2.709 0,2.235M3.106,4.099C-0.57,8.761 -6.699,6.198 -6.177,0.188C-5.978,-2.099 -4.76,-1.587 -4.436,-2.125C-4.26,-2.417 -4.799,-3.341 -4.002,-3.902C-0.274,-6.526 7.089,-0.953 3.106,4.099" style="fill:rgb(35,25,22);fill-rule:nonzero;"/>
            </g>
        </g>
        <g transform="matrix(4.166667,0,0,4.166667,0,0)">
            <g transform="matrix(1,0,0,1,318.5974,702.0415)">
                <path d="M0,-9.177C2.654,-8.735 5.326,-10.71 7.779,-9.111C9.861,-7.753 10.585,-1.59 10.032,0.856C6.26,0.893 6.912,-3.508 6.262,-6.271C1.685,-7.885 3.898,-1.305 2.839,0.245C1.959,1.533 0,0.539 0,-0.084L0,-9.177Z" style="fill:rgb(35,25,22);fill-rule:nonzero;"/>
            </g>
        </g>
        <g transform="matrix(4.166667,0,0,4.166667,0,0)">
            <g transform="matrix(1,0,0,1,386.3389,701.1136)">
                <path d="M0,-11.071C-0.031,-11.339 -0.861,-11.932 -0.625,-12.635C2.691,-13.115 2.522,-8.724 2.515,-6.371C3.476,-6.13 3.001,-7.297 3.559,-7.632C8.114,-10.368 8.927,-2.019 9.41,0.832C4.617,2.044 6.619,-2.745 4.704,-5.101C2.79,-3.831 3.319,-1.457 3.131,0.526L0,0.53C-0.308,-3.172 0.422,-7.452 0,-11.071" style="fill:rgb(35,25,22);fill-rule:nonzero;"/>
            </g>
        </g>
        <g transform="matrix(4.166667,0,0,4.166667,0,0)">
            <g transform="matrix(1,0,0,1,199.1087,694.5161)">
                <path d="M0,5.861C-2.635,4.2 -1.763,-0.494 1.562,-0.399C2.525,1.963 1.997,4.213 0,5.861M-3.57,0.347C-3.597,0.449 -3.621,0.552 -3.641,0.656C-3.652,0.715 -3.661,0.774 -3.671,0.834C-3.673,0.85 -3.674,0.851 -3.675,0.858C-3.677,0.873 -3.678,0.887 -3.68,0.902C-3.717,1.225 -3.725,1.55 -3.727,1.875L-3.724,1.866C-4.094,8.129 3.833,11.858 4.715,4.319C5.684,-3.975 -0.63,-5.997 -3.57,0.347" style="fill:rgb(35,25,22);fill-rule:nonzero;"/>
            </g>
        </g>
        <g transform="matrix(4.166667,0,0,4.166667,0,0)">
            <g transform="matrix(1,0,0,1,301.9755,703.8862)">
                <path d="M0,-9.755L1.552,-7.568L-1.565,-6.635L0,-9.755ZM-0.938,-3.503C-0.9,-4.624 1.065,-4.109 2.053,-4.54C4.742,-5.712 2.594,-9.999 0.934,-11.368C-0.648,-12.232 -2.705,-10.443 -3.45,-9.14C-3.818,-8.496 -4.742,-5.816 -4.7,-5.114C-4.417,-0.314 4.662,2.477 4.701,-3.494L-0.938,-3.503Z" style="fill:rgb(35,25,22);fill-rule:nonzero;"/>
            </g>
        </g>
        <g transform="matrix(4.166667,0,0,4.166667,0,0)">
            <g transform="matrix(1,0,0,1,297.9839,702.1309)">
                <path d="M0,-9.768L-4.545,-8.742C-4.707,-8.705 -4.876,-8.762 -4.982,-8.889L-5.801,-9.863C-5.904,-9.79 -6.009,-9.718 -6.112,-9.645C-6.28,-9.525 -6.455,-9.416 -6.631,-9.309C-7.301,-6.501 -8.092,-3.605 -7.406,-0.728C-7.366,-0.558 -7.226,-0.427 -7.056,-0.392L-4.964,0.041C-4.705,0.095 -4.457,-0.088 -4.432,-0.352L-3.9,-5.997C-3.83,-6.746 -3.207,-7.323 -2.454,-7.335L0.105,-7.378C0.348,-7.382 0.542,-7.58 0.542,-7.822L0.542,-9.335C0.542,-9.62 0.278,-9.831 0,-9.768" style="fill:rgb(35,25,22);fill-rule:nonzero;"/>
            </g>
        </g>
        <g transform="matrix(4.166667,0,0,4.166667,0,0)">
            <g transform="matrix(1,0,0,1,417.6975,697.9838)">
                <path d="M0,-3.862C-2.041,-4.353 -2.991,0.517 -2.502,1.148C0.168,0.979 -0.062,-1.926 0,-3.862M4.39,5.538C2.357,5.592 1.357,4.322 1.249,2.407C-0.571,1.997 0.312,4.063 -1.652,4.129C-7.484,4.324 -4.41,-9.454 2.225,-5.143L4.39,5.538Z" style="fill:rgb(35,25,22);fill-rule:nonzero;"/>
            </g>
        </g>
        <g transform="matrix(4.166667,0,0,4.166667,0,0)">
            <g transform="matrix(1,0,0,1,429.4186,697.4204)">
                <path d="M0,-8.763C2.108,-6.422 -1.328,-5.706 -2.93,-7.691C-3.949,-4.324 0.07,-5.238 -0.424,-2.05L-2.942,-2.047L-2.316,4.852L-4.79,4.849C-5.762,2.713 -4.997,-0.426 -5.429,-2.239C-5.616,-3.024 -8.108,-3.075 -7.327,-5.181L-5.511,-5.218C-6.307,-11.112 -4.369,-13.615 0,-8.763" style="fill:rgb(35,25,22);fill-rule:nonzero;"/>
            </g>
        </g>
        <g transform="matrix(4.166667,0,0,4.166667,0,0)">
            <g transform="matrix(1,0,0,1,410.7979,695.4387)">
                <path d="M0,0.558L-4.307,-1.224C-8.238,4.625 -3.922,5.314 0.624,1.815C0.788,3.028 0.325,7.094 -0.988,7.376C-3.402,5.986 -3.654,9.764 -6.72,7.274C-13.001,2.172 -2.343,-9.206 0,0.558" style="fill:rgb(35,25,22);fill-rule:nonzero;"/>
            </g>
        </g>
        <g transform="matrix(4.166667,0,0,4.166667,0,0)">
            <g transform="matrix(1,0,0,1,434.6328,701.309)">
                <path d="M0,-5.933L-1.257,-5.949L-1.248,-4.058L0.115,-4.061L0,-5.933ZM-1.875,-1.54C-1.497,0.205 3.59,-2.195 3.126,0.009C2.462,3.166 -2.247,3.178 -3.907,0.171C-4.186,-0.334 -5.022,-3.323 -4.929,-3.704C-4.764,-4.373 -3.543,-4.487 -3.329,-4.868C-2.722,-5.954 -2.307,-9.111 -0.298,-8.945C0.707,-8.861 3.018,-4.536 2.424,-3.252C1.68,-1.381 -0.095,-1.425 -1.875,-1.54" style="fill:rgb(35,25,22);fill-rule:nonzero;"/>
            </g>
        </g>
        <g transform="matrix(4.166667,0,0,4.166667,0,0)">
            <g transform="matrix(1,0,0,1,312.3205,699.9711)">
                <path d="M0,-4.594C-1.293,-5.665 -3.138,-0.734 -1.564,-0.848C-0.913,-0.895 1.164,-3.27 0,-4.594M1.88,-0.835C-0.091,2.123 -3.572,4.367 -4.358,-0.563C-5.096,-5.193 0.303,-8.961 2.412,-5.433C2.651,-5.034 5.076,1.583 5.025,1.972C4.727,4.259 1.132,0.597 1.88,-0.835" style="fill:rgb(35,25,22);fill-rule:nonzero;"/>
            </g>
        </g>
        <g transform="matrix(4.166667,0,0,4.166667,0,0)">
            <g transform="matrix(0.661006,-0.75038,-0.75038,-0.661006,350.060733,637.382111)">
                <path d="M-0.238,-3.473C-5.579,-6.679 -10.957,-1.844 -1.973,2.922C-1.393,3.229 -0.67,3.1 -0.238,2.603L0.569,1.672C1.953,0.08 1.57,-2.387 -0.238,-3.473" style="fill:rgb(35,25,22);fill-rule:nonzero;"/>
            </g>
        </g>
        <g transform="matrix(4.166667,0,0,4.166667,0,0)">
            <g transform="matrix(1,0,0,1,251.0197,690.7804)">
                <path d="M0,2.635L-1.372,-1.039C-1.419,-1.025 -1.467,-1.01 -1.516,-1.01L-1.868,-1.01C-1.899,-0.99 -1.927,-0.965 -1.966,-0.952C-1.984,-0.946 -2.004,-0.947 -2.023,-0.945C-2.398,0.397 -2.339,1.763 -1.854,3.272C-1.771,3.533 -1.48,3.674 -1.221,3.586L-0.305,3.277C-0.041,3.188 0.098,2.897 0,2.635" style="fill:rgb(35,25,22);fill-rule:nonzero;"/>
            </g>
        </g>
        <g transform="matrix(4.166667,0,0,4.166667,0,0)">
            <g transform="matrix(1,0,0,1,330.5084,658.3775)">
                <path d="M0,5.011C-1.121,4.483 -2.269,0.808 -0.931,0L0,5.011Z" style="fill:rgb(35,25,22);fill-rule:nonzero;"/>
            </g>
        </g>
    </g>
</svg>
