<?xml version="1.0" encoding="UTF-8" standalone="no"?>
<!DOCTYPE svg PUBLIC "-//W3C//DTD SVG 1.1//EN" "http://www.w3.org/Graphics/SVG/1.1/DTD/svg11.dtd">
<svg width="100%" height="100%" viewBox="0 0 1199 229" version="1.1" xmlns="http://www.w3.org/2000/svg" xmlns:xlink="http://www.w3.org/1999/xlink" xml:space="preserve" xmlns:serif="http://www.serif.com/" style="fill-rule:evenodd;clip-rule:evenodd;stroke-linejoin:round;stroke-miterlimit:2;">
    <g transform="matrix(1,0,0,1,-681.835417,-2617.673136)">
        <g transform="matrix(4.166667,0,0,4.166667,0,0)">
            <g transform="matrix(1,0,0,1,238.932,638.9626)">
                <path d="M0,25.68C-0.366,24.229 0.828,20.863 -0.615,20.043C-0.245,21.489 -1.448,24.807 0,25.68M27.895,17.554C27.981,15.894 26.616,14.857 25.155,13.945C24.554,13.57 23.768,13.953 23.698,14.658L23.54,16.246C23.499,16.653 23.724,17.041 24.097,17.209L26.557,18.316C27.146,18.581 27.862,18.198 27.895,17.554M4.47,17.925L5.521,32.552C5.548,32.929 5.346,33.291 5.014,33.47C3.225,34.436 2.19,33.104 0.945,32.886C0.121,32.741 -1.22,33.686 -2.068,32.816C-2.185,32.697 -2.25,32.539 -2.276,32.374C-2.775,29.233 -1.826,17.341 -3.261,16.399C-3.884,15.991 -5.69,16.572 -6.262,15.332C-7.043,13.634 -5.078,13.667 -4.372,12.864C-2.659,10.916 -4.12,3.337 -3.607,-0.191C-3.411,-1.539 -2.361,-4.555 -1.659,-5.767C-0.425,-7.895 2.817,-9.75 5.327,-10.465C5.842,-10.612 7.036,-10.968 7.166,-10.448L7.159,-10.434L7.198,-10.416C7.954,-9.486 8.034,-8.805 8.678,-8.174C9.207,-7.655 8.643,-7.366 8.766,-8.097L8.692,-8.17L10.664,-6.271C11.219,-4.953 9.884,-7.012 10.674,-6.306C11.959,-5.159 14.526,-4.706 14.486,-1.954C14.479,-1.525 14.195,-1.118 13.775,-1.03C10.52,-0.35 6.069,-7.275 3.716,-4.156C2.322,-2.308 3.229,6.175 3.693,9.795C3.753,10.261 4.145,10.609 4.615,10.62L16.947,10.916C17.314,10.925 17.649,10.725 17.813,10.396C19,8.023 23.28,4.684 25.353,4.984C25.753,5.042 28.058,6.21 28.148,6.364C28.692,7.296 30.991,9.893 30.359,11.636C30.221,12.014 29.874,11.32 33.238,11.272C34.299,12.795 36.615,14.502 36.904,15.425C37.223,16.445 36.924,17.782 37.146,18.963C37.407,20.357 38.77,20.572 37.692,22.245C35.165,26.165 28.402,23.308 24.097,23.16C23.546,23.141 23.104,23.585 23.105,24.136C23.109,25.724 23.717,28.191 24.782,28.191L37.392,28.191C38.078,28.191 38.529,28.893 38.264,29.526C37.722,30.818 38.219,30.683 39.263,32.482C39.373,32.671 39.429,32.904 39.381,33.117C38.591,36.648 30.041,36.563 27.301,36.333C13.162,35.148 15.594,27.147 17.348,16.387C17.451,15.756 16.909,15.214 16.274,15.292C15.079,15.439 14.434,15.366 14.681,17.025C13.501,17.261 14.621,16.904 14.433,16.904L5.42,16.904C4.867,16.904 4.431,17.373 4.47,17.925" style="fill:rgb(35,25,22);fill-rule:nonzero;"/>
            </g>
        </g>
        <g transform="matrix(4.166667,0,0,4.166667,0,0)">
            <g transform="matrix(1,0,0,1,441.5169,675.9068)">
                <path d="M0,-25.953C-7.679,-30.411 -14.801,-20.346 -6.61,-15.593C-6.196,-15.352 -5.678,-15.348 -5.25,-15.562C-1.373,-17.501 1.442,-20.315 0.689,-24.95C0.621,-25.365 0.364,-25.742 0,-25.953M7.733,-30.536C8.373,-30.57 8.969,-30.184 9.194,-29.584C10.519,-26.063 8.924,-22.697 8.777,-19.128C8.504,-12.482 10.88,-8.564 7.885,-1.829C4.907,4.866 0.296,7.898 -7.222,6.95C-12.516,6.282 -18.566,-2.496 -10.826,-4.235C-9.468,-4.54 -2.521,-4.764 -2.503,-3.423L-3.755,-2.947C-4.464,-2.678 -4.86,-1.92 -4.675,-1.185C-4.482,-0.42 -3.721,0.104 -2.954,-0.078C-0.031,-0.773 1.168,-4.479 1.333,-7.702C1.388,-8.792 0.318,-9.564 -0.706,-9.185C-6.928,-6.883 -11.652,-7.956 -15.562,-14.183C-18.086,-18.202 -18.297,-22.665 -15.791,-26.753C-11.441,-33.851 0.486,-30.158 7.733,-30.536" style="fill:rgb(35,25,22);fill-rule:nonzero;"/>
            </g>
        </g>
        <g transform="matrix(4.166667,0,0,4.166667,0,0)">
            <g transform="matrix(1,0,0,1,333.7487,641.0356)">
                <path d="M0,30.415C-0.67,30.001 -1.659,21.007 -1.502,19.538C-4.507,17.116 -2.644,12.825 -4.498,9.815C-6.55,10.66 -4.454,13.736 -5.122,15.455L-5.746,13.573C-6.76,12.448 -8.808,17.37 -9.06,18.099C-9.976,20.744 -10.219,27.223 -12.659,28.35C-13.06,28.535 -20.331,27.275 -21.393,27.028L-25.179,21.734L-27.033,29.602L-32.126,29.606C-34.058,28.258 -30.472,13.16 -29.191,10.492L-24.898,6.697C-21.165,9.079 -20.312,12.031 -17.974,15.446C-17.016,14.994 -17.312,13.462 -16.873,13.071C-16.102,12.383 -16.964,13.877 -15.703,11.142C-12.903,10.403 -13.034,7.267 -11.828,5.296C-11.19,4.255 -10.332,3.97 -9.61,3.152C-8.304,1.67 -7.917,-1.352 -4.475,0.714C-4.223,0.865 -1.531,5.021 -1.227,5.613C0.506,8.979 5.381,26.073 5.513,29.66C5.552,30.699 5.477,31.134 4.59,31.767C3.465,30.517 0.56,30.761 0,30.415" style="fill:rgb(35,25,22);fill-rule:nonzero;"/>
            </g>
        </g>
        <g transform="matrix(4.166667,0,0,4.166667,0,0)">
            <g transform="matrix(1,0,0,1,223.8783,648.6304)">
                <path d="M0,14.131L-1.242,9.121C-1.19,10.515 -1.634,13.492 0,14.131M-10.064,-2.15L-11.909,-2.175L-13.158,7.235C-11.511,6.318 -8.664,-1.234 -10.064,-2.15M1.267,25.422L-0.001,16.019C-1.183,15.893 -0.506,17.334 -0.442,18.027C-0.138,21.318 1.2,24.93 -1.559,27.301C-5.762,23.566 -5.021,18.213 -5.616,13.171C-5.728,12.221 -5.638,11.617 -6.58,11.011C-8.339,12.219 -8.58,15.194 -9.587,16.466C-10.819,18.022 -15.008,19.48 -16.62,21.018C-17.161,19.554 -19.14,17.599 -19.593,16.484C-21.339,12.18 -19.164,0.319 -17.185,-3.991C-12.969,-13.17 -6.937,-5.409 -0.29,-4.069L2.985,23.378L1.267,25.422Z" style="fill:rgb(35,25,22);fill-rule:nonzero;"/>
            </g>
        </g>
        <g transform="matrix(4.166667,0,0,4.166667,0,0)">
            <g transform="matrix(1,0,0,1,196.9105,655.5132)">
                <path d="M0,0.35C-6.515,1.381 -8.826,-6.471 -13.483,-9.068C-14.45,-6.583 -17.866,-7.892 -19.73,-5.893C-20.394,-5.181 -24.21,1.894 -24.601,3.033C-25.136,4.589 -25.259,6.297 -25.452,7.913C-24.298,9.321 -14.548,10.22 -12.216,10.356C-9.147,10.535 -5.189,8.426 -3.391,12.293L-1.255,11.639C-1.078,12.612 -0.535,13.787 -1.403,14.617C-1.814,15.01 -8.676,18.862 -9.257,18.998C-10.544,19.299 -14.945,19.226 -16.501,19.101C-18.598,18.932 -30.055,17.014 -30.726,15.707L-30.641,15.738L-33.27,13.547L-33.239,13.517C-33.016,9.055 -33.736,5.713 -31.917,1.363C-26.843,-10.768 -16.299,-18.949 -5.003,-7.497L0,0.35Z" style="fill:rgb(35,25,22);fill-rule:nonzero;"/>
            </g>
        </g>
        <g transform="matrix(4.166667,0,0,4.166667,0,0)">
            <g transform="matrix(1,0,0,1,380.3412,651.7769)">
                <path d="M0,0.211C-0.121,1.758 -0.121,0.939 -0.058,1.518C0.07,2.701 -1.5,13.306 -1.847,13.848C-2.154,14.327 -2.072,14.571 -2.083,15.024L-1.009,20.654C-4.444,24.042 -10.008,23.592 -10.907,18.166C-12.164,10.578 -8.818,1.911 -8.918,-5.483L-4.028,-20.364L-2.164,-18.49C-2.045,-21.36 1.513,-23.831 2.223,-20.029L0,0.211Z" style="fill:rgb(35,25,22);fill-rule:nonzero;"/>
            </g>
        </g>
        <g transform="matrix(4.166667,0,0,4.166667,0,0)">
            <g transform="matrix(1,0,0,1,420.2043,648.783)">
                <path d="M0,20.254C-1.662,19.051 -3.884,21.004 -5.251,20.738C-10.141,19.785 -7.501,7.636 -11.051,5.263C-15.071,6.2 -16.392,7.041 -18.26,10.09C-18.667,10.754 -18.792,10.949 -18.71,12.847C-18.688,13.356 -18.133,18.56 -19.115,20.259C-19.911,21.637 -23.241,21.634 -24.3,20.723C-25.268,19.891 -26.653,4.448 -26.369,2.35C-26.187,1.008 -25.788,-0.261 -24.23,-0.391L-21.954,1.439C-20.746,2.764 -19.905,2.692 -19.125,2.683C-16.699,0.285 -14.739,-1.383 -11.155,-0.93C-0.972,0.355 0.326,11.848 0,20.254" style="fill:rgb(35,25,22);fill-rule:nonzero;"/>
            </g>
        </g>
        <g transform="matrix(4.166667,0,0,4.166667,0,0)">
            <g transform="matrix(1,0,0,1,366.2646,628.5507)">
                <path d="M0,41.115C-1.91,39.935 -3.469,40.872 -5.343,41.545L-7.236,39.253C-10.083,25.796 -6.179,12.296 -1.569,-0.261C0.585,1.629 3.35,-0.43 3.806,3.145C4.32,7.165 1.104,17.509 0.641,22.623C0.189,27.605 0.016,34.619 0.466,39.002C0.543,39.749 -0.029,40.377 0,41.115" style="fill:rgb(35,25,22);fill-rule:nonzero;"/>
            </g>
        </g>
        <g transform="matrix(4.166667,0,0,4.166667,0,0)">
            <g transform="matrix(1,0,0,1,390.4191,669.12)">
                <path d="M0,-20.955C-0.199,-21.706 -0.835,-22.166 -1.59,-22.347C-1.622,-22.354 -1.572,-22.352 -1.604,-22.36C-1.569,-22.327 -1.616,-22.378 -1.582,-22.346C-7.595,-18.982 -5.357,-16.501 -6.012,-11.11C-6.315,-8.613 -8.067,-3.713 -7.019,-0.982C-6.949,-0.799 -6.839,-0.628 -6.702,-0.487C-5.398,0.848 -4.091,-0.096 -2.955,0.782C-2.126,1.423 -0.921,1.166 -0.498,0.209C1.112,-3.433 0.237,-7.802 0.296,-11.726C0.342,-14.838 0.765,-18.068 0,-20.955" style="fill:rgb(35,25,22);fill-rule:nonzero;"/>
            </g>
        </g>
        <g transform="matrix(4.166667,0,0,4.166667,0,0)">
            <g transform="matrix(1,0,0,1,395.0393,642.7591)">
                <path d="M0,-3.402C-0.198,-3.979 -3.364,-6.311 -4.03,-6.37C-5.003,-6.456 -6.035,-5.538 -7.168,-5.151C-7.844,-4.921 -7.86,-4.161 -8.198,-3.533C-8.951,-2.137 -9.288,-1.829 -9.353,-1.542C-9.626,-0.329 -9.07,0.828 -8.275,1.85C-8.148,2.014 -7.987,2.155 -7.806,2.257C-7.178,2.609 -6.5,2.866 -5.797,3.011C-5.591,3.053 -5.379,3.054 -5.174,3.013C-2.302,2.433 1.067,-0.295 0,-3.402" style="fill:rgb(35,25,22);fill-rule:nonzero;"/>
            </g>
        </g>
        <g transform="matrix(4.166667,0,0,4.166667,0,0)">
            <g transform="matrix(1,0,0,1,349.9228,672.6148)">
                <path d="M0,-26.774C1.724,-22.545 0.056,-17.41 0.164,-13.3C0.23,-10.805 2.97,-1.871 1.332,-0.718C0.312,0 -2.266,-0.439 -3.351,-1.135C-6.691,-3.277 -6.001,-17.984 -7.547,-22.086C-7.356,-25.558 -2.883,-26.612 0,-26.774" style="fill:rgb(35,25,22);fill-rule:nonzero;"/>
            </g>
        </g>
        <g transform="matrix(4.166667,0,0,4.166667,0,0)">
            <g transform="matrix(0.661006,-0.75038,-0.75038,-0.661006,350.060733,637.382111)">
                <path d="M-0.238,-3.473C-5.579,-6.679 -10.957,-1.844 -1.973,2.922C-1.393,3.229 -0.67,3.1 -0.238,2.603L0.569,1.672C1.953,0.08 1.57,-2.387 -0.238,-3.473" style="fill:rgb(35,25,22);fill-rule:nonzero;"/>
            </g>
        </g>
        <g transform="matrix(4.166667,0,0,4.166667,0,0)">
            <g transform="matrix(1,0,0,1,330.5084,658.3775)">
                <path d="M0,5.011C-1.121,4.483 -2.269,0.808 -0.931,0L0,5.011Z" style="fill:rgb(35,25,22);fill-rule:nonzero;"/>
            </g>
        </g>
    </g>
</svg>
